<svg width="19" height="20" viewBox="0 0 19 20" fill="none" xmlns="http://www.w3.org/2000/svg">
<path d="M8.88801 18.8001L1.01301 11.0351C0.937724 10.9577 0.880687 10.8645 0.846082 10.7622C0.811477 10.66 0.800183 10.5512 0.813016 10.444C0.637856 10.2923 0.529931 10.0774 0.512876 9.84635C0.495821 9.61526 0.571021 9.38687 0.722013 9.2111L8.84301 1.20304C9.02504 1.05269 9.25841 0.979056 9.49376 0.99772C9.7291 1.01638 9.94797 1.12586 10.104 1.30302C10.1927 1.37787 10.2656 1.46949 10.3187 1.57267C10.3717 1.67585 10.4038 1.78857 10.4131 1.90421C10.4224 2.01986 10.4087 2.13617 10.3728 2.2465C10.3369 2.35683 10.2796 2.45899 10.204 2.54704L3.62701 9.03202H17.55C17.802 9.03202 18.0436 9.13218 18.2218 9.31034C18.3999 9.4885 18.5 9.73014 18.5 9.98209V9.99198C18.4997 10.2439 18.3996 10.4854 18.2215 10.6635C18.0434 10.8416 17.8019 10.9418 17.55 10.9421H3.55902L10.208 17.4991C10.281 17.5847 10.3363 17.6839 10.3708 17.7909C10.4052 17.898 10.4182 18.0108 10.4089 18.1228C10.3996 18.2349 10.3682 18.3441 10.3166 18.444C10.265 18.5439 10.1941 18.6326 10.108 18.705C9.92271 18.8924 9.67153 19.0001 9.40802 19.005C9.21439 19.0082 9.02741 18.9345 8.88801 18.8001Z" fill="#11293B"/>
</svg>
